<svg width="14" height="20" viewBox="0 0 14 20" fill="none" xmlns="http://www.w3.org/2000/svg">
<path fill-rule="evenodd" clip-rule="evenodd" d="M6.48731 10C9.24873 10 11.4873 7.76142 11.4873 5C11.4873 2.23858 9.24873 0 6.48731 0C3.72588 0 1.48731 2.23858 1.48731 5C1.48731 7.76142 3.72588 10 6.48731 10ZM2.83513 9.35354C1.21776 9.0217 -0.231688 10.4107 0.0309535 12.0407L0.637112 15.8027C1.02686 18.2216 3.11469 20 5.56479 20H7.81085C10.347 20 12.4753 18.0881 12.7462 15.5664L13.1541 11.7688C13.3175 10.2475 11.9364 9.0167 10.4438 9.35354L10.2956 9.50265C8.22117 11.5893 4.82452 11.5214 2.83513 9.35354Z" fill="#174449"/>
</svg>
